# xmcd
#
# Track frame offsets:
#	151
#	14950
#	28559
#	44180
#	57255
#	77376
#	90453
#	104284
#	118791
#	136662
#	148175
#	159380
#	172013
#	191472
#	207479
#	226934
#	243091
#	256020
#	268199
#
# Disc length: 3846 seconds
#
# Revision: 1
# Processed by: cddbd v1.5.2PL0 Copyright (c) Steve Scherf et al.
# Submitted via: audiograbber 1.83.01
#
DISCID=060f0413
DTITLE=Diverse kunstnere Country - Alternative Country 05
DYEAR=1998
DGENRE=Country
TTITLE0=That Friday Night - Keith Bradford
TTITLE1=I´m Living In The Country - Tom Grant
TTITLE2=First Love After 40 Years - Beverly Grant
TTITLE3=I Never Saw The Face Of Jesus - The Laughins
TTITLE4=Christians Hurt Too - The Laughins
TTITLE5=America America - Keith Bradford
TTITLE6=The Bells Of Christmas - Keith Bradford
TTITLE7=Church On The Hill - Tom Grant
TTITLE8=Flowers In Your Garden - Keith Bradford
TTITLE9=I Love Him, I´ll Make Him Happy - Beverly Grant
TTITLE10=Fool # 1 - Joy Kemp
TTITLE11=House Work - Charlotte Bradford
TTITLE12=Listent To Who´s Missing Who - Sherry Robbinson
TTITLE13=The Sounds Of Christmas - Sherry Robbinson
TTITLE14=I Promise That I Will Love You - Keith Bradford
TTITLE15=All Alone - Charlotte Bradford
TTITLE16=Now That I Found - Eddie Rivers
TTITLE17=Wee Leave Out The Cheating - Patsy Christy - Eddie Rivers
TTITLE18=How Could You Love Me With Her In Your Mind - Sherry Robbinson
EXTD=
EXTT0=
EXTT1=
EXTT2=
EXTT3=
EXTT4=
EXTT5=
EXTT6=
EXTT7=
EXTT8=
EXTT9=
EXTT10=
EXTT11=
EXTT12=
EXTT13=
EXTT14=
EXTT15=
EXTT16=
EXTT17=
EXTT18=
PLAYORDER=
